<?xml version="1.0" standalone="no"?>
<!DOCTYPE svg PUBLIC "-//W3C//DTD SVG 20010904//EN"
 "http://www.w3.org/TR/2001/REC-SVG-20010904/DTD/svg10.dtd">
<svg version="1.0" xmlns="http://www.w3.org/2000/svg"
 width="42.000000pt" height="42.000000pt" viewBox="0 0 42.000000 42.000000"
 preserveAspectRatio="xMidYMid meet">

<g transform="translate(0.000000,42.000000) scale(0.100000,-0.100000)"
fill="#000000" stroke="none">
<path d="M177 406 c-8 -9 -24 -12 -36 -9 -24 6 -61 -21 -61 -44 0 -7 -6 -13
-13 -13 -23 0 -50 -37 -44 -61 3 -12 0 -28 -9 -36 -18 -19 -18 -47 1 -63 9 -8
13 -21 9 -37 -7 -26 18 -63 43 -63 7 0 13 -6 13 -13 0 -23 37 -50 61 -44 12 3
28 0 36 -9 19 -18 47 -18 63 1 8 9 21 13 37 9 26 -7 63 18 63 43 0 7 6 13 13
13 25 0 50 37 43 63 -4 16 0 29 9 37 19 16 19 44 1 63 -9 8 -12 24 -9 36 6 24
-21 61 -44 61 -7 0 -13 6 -13 13 0 25 -37 50 -63 43 -16 -4 -29 0 -37 9 -16
19 -44 19 -63 1z m59 -31 c5 -12 15 -14 40 -9 29 5 34 3 39 -19 4 -16 16 -28
32 -32 22 -5 24 -10 19 -39 -5 -25 -3 -35 9 -40 20 -7 20 -45 0 -52 -12 -5
-14 -15 -9 -40 5 -29 3 -34 -19 -39 -16 -4 -28 -16 -32 -32 -5 -22 -10 -24
-39 -19 -25 5 -35 3 -40 -9 -3 -8 -15 -15 -26 -15 -11 0 -23 7 -26 15 -5 12
-15 14 -40 9 -29 -5 -34 -3 -39 19 -4 16 -16 28 -32 32 -22 5 -24 10 -19 39 5
25 3 35 -9 40 -20 7 -20 45 0 52 12 5 14 15 9 40 -5 29 -3 34 19 39 16 4 28
16 32 32 5 22 10 24 39 19 25 -5 35 -3 40 9 3 8 15 15 26 15 11 0 23 -7 26
-15z"/>
<path d="M144 300 c-32 -13 -54 -50 -54 -88 0 -47 54 -102 102 -102 66 0 138
64 138 123 0 28 -23 15 -31 -17 -11 -38 -35 -63 -75 -76 -62 -21 -123 34 -108
96 12 45 72 59 98 22 18 -26 5 -58 -24 -58 -26 0 -36 21 -17 35 16 12 23 35
11 35 -20 0 -44 -24 -44 -45 0 -51 53 -72 90 -35 53 53 -15 140 -86 110z"/>
</g>
</svg>
